<svg id="Livello_1" data-name="Livello 1" xmlns="http://www.w3.org/2000/svg" viewBox="0 0 284.84 297.41"><defs><style>.cls-1,.cls-2,.cls-3{fill:#fff;stroke:#fff;stroke-miterlimit:10;}.cls-2{stroke-width:7px;}.cls-3{stroke-linecap:round;stroke-width:4px;}</style></defs><g id="Livello_2" data-name="Livello 2"><path class="cls-1" d="M137.8,11.4c29.4,0,56.7,5.8,81.4,20.8C254,53.5,274.1,84.6,279.7,125c2.6,18.4,2.2,36.7-4.1,54.5-3.8,10.9-9.9,20.2-19.3,27.1a3.16,3.16,0,0,0-1.4,3.3c1.2,12.7-6.5,20.9-19.3,20.7a2.21,2.21,0,0,0-2.5,1.6c-16,38.5-62.8,66.4-109.5,66.4-29,0-55.6-7.3-79-24.8-17.4-13-29.7-29.6-34-51.2-4.7-23.7,1.8-44.8,16.7-63.5a89.47,89.47,0,0,1,8.4-9,34.48,34.48,0,0,0,2.8-5.4c4.7-11.3-3.6-29.4.9-49,0,0,2.6-11.3,9.9-19.3.3-.3,5.5-6,8-6.3a1.91,1.91,0,0,0,1.4-.7,2.48,2.48,0,0,0,0-1.7C54.8,50.6,61.3,35,76.3,25.3c11.8-7.6,25.1-10.8,38.8-12.6A171.81,171.81,0,0,1,137.8,11.4Zm33.5,64.2a76.81,76.81,0,0,1,4.1,8.1,38.39,38.39,0,0,1,2.3,8.2c.5,2.5,2.1,5.8-.7,6.9-1.6.6-2.5-.3-3.3-1.5a17.63,17.63,0,0,0-7.3-6.2,49.89,49.89,0,0,0-14.6-4.7c-13.2-2.3-26.5-1.3-39.7-.9-11.7.3-23.4,1-35-1.7-1.8-.4-2.7.5-3.7,1.6A112.88,112.88,0,0,0,43,147.8a8,8,0,0,1-2.9,5.1,67.49,67.49,0,0,0-10,10.7c-14.4,18.8-19.8,39.7-13.6,62.9,4.9,18.3,16.1,32.4,31.1,43.6C89,301,150.4,301.7,193.2,271.8c14.8-10.4,26.7-23.2,34.4-39.7,1-2.1,1.3-3.5-1.2-4.8A13.8,13.8,0,0,1,221,221a2.48,2.48,0,0,1,.6-3.3c.1-.1.2-.1.3-.2,1.4-.9,2.6-.3,3.5,1,.4.6.8,1.3,1.2,2a12.85,12.85,0,0,0,21.5-14,12.6,12.6,0,0,0-15.6-5.5c-1.8.6-3.6,1.2-4.5-1.1s1-3.1,2.8-3.7a19.18,19.18,0,0,1,8.9-1c.9.1,2,1.1,2.8,0s.2-2.4-.4-3.5a4.26,4.26,0,0,0-3.8-2.3,13.31,13.31,0,0,0-6.2,1.3c-9.8,4.6-17.2,11.5-21,21.8-.9,2.3-2.1,3.8-4.6,3.2s-13.4-2.1-13.1-4.5c.6-5.2,4.4-14.3,4.2-20.2a44.22,44.22,0,0,1,.2-6.3c1.2-10.8,2-19.7,6.3-31.4a98.16,98.16,0,0,0,3.3-10.9C215,114.1,204.2,87.1,171.3,75.6Z" transform="translate(-8.59 -1.69)"/><path class="cls-1" d="M110.3,270.8c-27.4-1.2-51-10.2-67.9-32.9C35,228,30.3,216.8,31,204c.5-8.6,5.3-14.7,12.9-16.8,4.8-1.3,9.3-.3,13.5,2A52.61,52.61,0,0,1,70.1,199c14.2,14.7,32,21.9,51.6,25.3a66,66,0,0,1,11.7,2.6c10.5,4,15.4,13.7,12.2,24.5-3.4,11.3-11.6,16.7-22.7,18.4A74.75,74.75,0,0,1,110.3,270.8ZM89.7,234.9a30.69,30.69,0,0,0-39.5.3c-1.9,1.6-1.9,2.6-.3,4.5,10.8,12.1,24.2,19.6,39.7,23.4,12.5,3.1,25.1,4,37.7.6,5.4-1.5,5.4-1.7,2.8-6.5a48.6,48.6,0,0,0-3.3-5.4c-5.9-8.9-14.3-13.1-24.9-13.2a64,64,0,0,0-16.8,2.6c-1.8.5-3.2.1-3.7-1.7s.8-2.7,2.3-3.1C85.8,235.9,87.7,235.4,89.7,234.9Z" transform="translate(-8.59 -1.69)"/><path class="cls-1" d="M140.2,180c.4-2.5.8-5.1,1.2-7.6.4-3.2,1.4-5.8,5.2-6.2,2.5-.3,2.9-2,1.2-3.8-2.3-2.3-1.9-4.5-.6-7.2,3.1-6,6.3-11.8,10.9-16.8a17.47,17.47,0,0,1,7.1-4.9,8.09,8.09,0,0,1,6.1.5c3.8,2,3.8,5,3,8a19.82,19.82,0,0,1-3.9,7.3c-7.1,9.3-11.9,19.6-13.6,31.2a18.77,18.77,0,0,1-2.3,6.9c-1.6,2.6-3.7,4.2-6.9,3.9a7.06,7.06,0,0,1-6.4-5.1A25.9,25.9,0,0,1,140.2,180Z" transform="translate(-8.59 -1.69)"/><path class="cls-1" d="M58.5,155.8c.4-2.3.9-4.7,1.2-7.1.3-2.9,1.5-4.7,4.6-5.1,2.3-.3,2.7-1.9,1.2-3.5-2.1-2.2-1.7-4.2-.5-6.6,2.7-5.3,5.5-10.4,9.5-14.8,2.1-2.3,4.4-4.4,7.7-5.1,5.2-1,8.8,2.8,7.4,7.9a22.71,22.71,0,0,1-4.2,7.6,59.36,59.36,0,0,0-11.6,26.7,29.77,29.77,0,0,1-1.8,6c-1.2,3.1-3.5,5-6.9,4.6s-5.3-2.6-6-5.8C58.8,159.1,58.7,157.5,58.5,155.8Z" transform="translate(-8.59 -1.69)"/><path class="cls-1" d="M99.4,193a15.23,15.23,0,1,1,12.9-23.4c1,1.6,2,3.3-.1,4.6s-2.9-.3-3.9-1.7c-3.4-4.9-8.9-6.4-13.7-3.7A10.26,10.26,0,0,0,90,181.7c2.2,5.2,7.5,7.5,13.3,5.6,1.9-.6,3.5-.7,4.1,1.3s-.9,2.8-2.4,3.4A15.4,15.4,0,0,1,99.4,193Z" transform="translate(-8.59 -1.69)"/><path class="cls-2" d="M285.5,157.5a73.46,73.46,0,0,0-4-12,84.46,84.46,0,0,0-12.7-19.6c-16.6-19.1-35.1-36-56.7-49.3a215.28,215.28,0,0,0-68.3-27.2,225,225,0,0,0-34.6-4.8,236.93,236.93,0,0,0-33.7.3A111.82,111.82,0,0,0,59.2,47a18.64,18.64,0,0,1-3.9,1c.1-.1.1-.3.2-.4C65,33,77.4,22.1,93.4,15.4a126.67,126.67,0,0,1,43.7-9.7c21.8-1.1,69.3-3.3,108.2,28.8,17.3,14.3,28.7,32,33.9,44.2a150.59,150.59,0,0,1,8,26.3,84.08,84.08,0,0,1,1.7,11.2,130.06,130.06,0,0,1-.1,20.7A121.06,121.06,0,0,1,285.5,157.5Z" transform="translate(-8.59 -1.69)"/><path class="cls-2" d="M55.1,48.1l.2-.3C55.3,48.1,55.2,48.1,55.1,48.1Z" transform="translate(-8.59 -1.69)"/><path class="cls-2" d="M261.5,201.7c-5.2-.7-8.7-4.4-10.8-6.5a107.58,107.58,0,0,1-11.8-15.1c-14.1-20.5-32.6-36-54.3-47.8a248.71,248.71,0,0,0-41.9-18.6A235.83,235.83,0,0,0,98.8,104a178.73,178.73,0,0,0-25.3-1.3c-6.4.2-12.8.6-19.2.3a46.51,46.51,0,0,1-12.9-2.2c-6.4-2.2-9.9-6.6-10.9-13.2a5.34,5.34,0,0,0-.5-2.5v-7c.1-.1.2-.2.2-.3a32.21,32.21,0,0,1,2.1-8.1c2-5.1,9.7-13.8,11.2-15C56.1,44,76.2,42,78,41.8c65.1-6.1,113.6,14.1,113.6,14.1,65.4,27.2,91.8,72.5,95.3,83.2,5.8,17.5,1.5,31.1,1.5,31.1h0a59.7,59.7,0,0,1-6.4,17.4,36.64,36.64,0,0,1-5.6,7.5c-2.7,2.7-5.9,5.9-10.9,6.6A13.41,13.41,0,0,1,261.5,201.7Z" transform="translate(-8.59 -1.69)"/><path class="cls-3" d="M236.3,219.9a14.33,14.33,0,0,0-13.2,7.2,14.17,14.17,0,0,0,6,19,14.44,14.44,0,0,0,19-5.9c3.3-6.3.1-12.9-.2-13.6" transform="translate(-8.59 -1.69)"/></g></svg>